%TF.GenerationSoftware,KiCad,Pcbnew,5.1.12-84ad8e8a86~92~ubuntu20.04.1*%
%TF.CreationDate,2022-03-12T13:00:31+01:00*%
%TF.ProjectId,DTMF 1,44544d46-2031-42e6-9b69-6361645f7063,rev?*%
%TF.SameCoordinates,Original*%
%TF.FileFunction,Soldermask,Bot*%
%TF.FilePolarity,Negative*%
%FSLAX46Y46*%
G04 Gerber Fmt 4.6, Leading zero omitted, Abs format (unit mm)*
G04 Created by KiCad (PCBNEW 5.1.12-84ad8e8a86~92~ubuntu20.04.1) date 2022-03-12 13:00:31*
%MOMM*%
%LPD*%
G01*
G04 APERTURE LIST*
%ADD10O,1.600000X1.600000*%
%ADD11R,1.600000X1.600000*%
%ADD12O,1.200000X1.200000*%
%ADD13O,1.600000X1.200000*%
%ADD14C,1.500000*%
%ADD15R,3.000000X3.000000*%
%ADD16C,3.000000*%
%ADD17C,1.600000*%
%ADD18O,1.200000X1.600000*%
%ADD19O,2.200000X2.200000*%
%ADD20R,2.200000X2.200000*%
%ADD21R,2.000000X2.000000*%
%ADD22O,2.000000X2.000000*%
G04 APERTURE END LIST*
D10*
%TO.C,U1*%
X93980000Y-74930000D03*
X78740000Y-67310000D03*
X91440000Y-74930000D03*
X81280000Y-67310000D03*
X88900000Y-74930000D03*
X83820000Y-67310000D03*
X86360000Y-74930000D03*
X86360000Y-67310000D03*
X83820000Y-74930000D03*
X88900000Y-67310000D03*
X81280000Y-74930000D03*
X91440000Y-67310000D03*
X78740000Y-74930000D03*
D11*
X93980000Y-67310000D03*
%TD*%
D12*
%TO.C,Q1*%
X143510000Y-69850000D03*
X144780000Y-68580000D03*
D13*
X146050000Y-69850000D03*
%TD*%
D10*
%TO.C,U2*%
X106680000Y-54610000D03*
X99060000Y-72390000D03*
X106680000Y-57150000D03*
X99060000Y-69850000D03*
X106680000Y-59690000D03*
X99060000Y-67310000D03*
X106680000Y-62230000D03*
X99060000Y-64770000D03*
X106680000Y-64770000D03*
X99060000Y-62230000D03*
X106680000Y-67310000D03*
X99060000Y-59690000D03*
X106680000Y-69850000D03*
X99060000Y-57150000D03*
X106680000Y-72390000D03*
D11*
X99060000Y-54610000D03*
%TD*%
D14*
%TO.C,Y1*%
X116840000Y-56060000D03*
X116840000Y-60960000D03*
%TD*%
D10*
%TO.C,U4*%
X138430000Y-63500000D03*
X123190000Y-55880000D03*
X135890000Y-63500000D03*
X125730000Y-55880000D03*
X133350000Y-63500000D03*
X128270000Y-55880000D03*
X130810000Y-63500000D03*
X130810000Y-55880000D03*
X128270000Y-63500000D03*
X133350000Y-55880000D03*
X125730000Y-63500000D03*
X135890000Y-55880000D03*
X123190000Y-63500000D03*
D11*
X138430000Y-55880000D03*
%TD*%
D10*
%TO.C,U3*%
X120650000Y-68580000D03*
X138430000Y-76200000D03*
X123190000Y-68580000D03*
X135890000Y-76200000D03*
X125730000Y-68580000D03*
X133350000Y-76200000D03*
X128270000Y-68580000D03*
X130810000Y-76200000D03*
X130810000Y-68580000D03*
X128270000Y-76200000D03*
X133350000Y-68580000D03*
X125730000Y-76200000D03*
X135890000Y-68580000D03*
X123190000Y-76200000D03*
X138430000Y-68580000D03*
D11*
X120650000Y-76200000D03*
%TD*%
D15*
%TO.C,T1*%
X121920000Y-85090000D03*
D16*
X121920000Y-95250000D03*
X134620000Y-85090000D03*
X134620000Y-95250000D03*
%TD*%
D10*
%TO.C,R10*%
X102870000Y-80010000D03*
D17*
X102870000Y-90170000D03*
%TD*%
D10*
%TO.C,R9*%
X143510000Y-77470000D03*
D17*
X143510000Y-87630000D03*
%TD*%
D10*
%TO.C,R8*%
X144780000Y-54610000D03*
D17*
X144780000Y-64770000D03*
%TD*%
D10*
%TO.C,R7*%
X93980000Y-53340000D03*
D17*
X93980000Y-63500000D03*
%TD*%
D10*
%TO.C,R6*%
X110490000Y-69850000D03*
D17*
X110490000Y-59690000D03*
%TD*%
D10*
%TO.C,R5*%
X99060000Y-90170000D03*
D17*
X99060000Y-80010000D03*
%TD*%
D10*
%TO.C,R4*%
X95250000Y-90170000D03*
D17*
X95250000Y-80010000D03*
%TD*%
D10*
%TO.C,R3*%
X87630000Y-90170000D03*
D17*
X87630000Y-80010000D03*
%TD*%
D10*
%TO.C,R2*%
X91440000Y-90170000D03*
D17*
X91440000Y-80010000D03*
%TD*%
D10*
%TO.C,R1*%
X78740000Y-63500000D03*
D17*
X88900000Y-63500000D03*
%TD*%
D12*
%TO.C,Q2*%
X111760000Y-86360000D03*
X110490000Y-85090000D03*
D18*
X111760000Y-83820000D03*
%TD*%
D16*
%TO.C,J3*%
X143510000Y-97790000D03*
D15*
X143510000Y-92710000D03*
%TD*%
D16*
%TO.C,J2*%
X96520000Y-96520000D03*
D15*
X101600000Y-96520000D03*
%TD*%
%TO.C,J1*%
X90170000Y-96520000D03*
D16*
X85090000Y-96520000D03*
X80010000Y-96520000D03*
%TD*%
D19*
%TO.C,D2*%
X107950000Y-76200000D03*
D20*
X97790000Y-76200000D03*
%TD*%
D21*
%TO.C,D1*%
X109220000Y-92710000D03*
D22*
X114220000Y-97710000D03*
X109220000Y-97710000D03*
X114220000Y-92710000D03*
%TD*%
D17*
%TO.C,C7*%
X87630000Y-54690000D03*
X87630000Y-59690000D03*
%TD*%
%TO.C,C6*%
X113030000Y-78660000D03*
X113030000Y-73660000D03*
%TD*%
%TO.C,C3*%
X78820000Y-82550000D03*
X83820000Y-82550000D03*
%TD*%
%TO.C,C2*%
X78820000Y-88900000D03*
X83820000Y-88900000D03*
%TD*%
%TO.C,C1*%
X80010000Y-59610000D03*
X80010000Y-54610000D03*
%TD*%
M02*
