M48
; DRILL file {KiCad 5.1.12-84ad8e8a86~92~ubuntu20.04.1} date sam. 12 mars 2022 13:00:36
; FORMAT={-:-/ absolute / inch / decimal}
; #@! TF.CreationDate,2022-03-12T13:00:36+01:00
; #@! TF.GenerationSoftware,Kicad,Pcbnew,5.1.12-84ad8e8a86~92~ubuntu20.04.1
; #@! TF.FileFunction,Plated,1,2,PTH
FMAT,2
INCH
T1C0.0276
T2C0.0315
T3C0.0394
T4C0.0433
T5C0.0512
T6C0.0598
%
G90
G05
T1
X4.35Y-3.35
X4.4Y-3.3
X4.4Y-3.4
X5.65Y-2.75
X5.7Y-2.7
X5.75Y-2.75
T2
X3.1Y-2.5
X3.1Y-2.65
X3.1Y-2.95
X3.1031Y-3.25
X3.1031Y-3.5
X3.15Y-2.15
X3.15Y-2.3469
X3.2Y-2.65
X3.2Y-2.95
X3.3Y-2.65
X3.3Y-2.95
X3.3Y-3.25
X3.3Y-3.5
X3.4Y-2.65
X3.4Y-2.95
X3.45Y-2.1531
X3.45Y-2.35
X3.45Y-3.15
X3.45Y-3.55
X3.5Y-2.5
X3.5Y-2.65
X3.5Y-2.95
X3.6Y-2.65
X3.6Y-2.95
X3.6Y-3.15
X3.6Y-3.55
X3.7Y-2.1
X3.7Y-2.5
X3.7Y-2.65
X3.7Y-2.95
X3.75Y-3.15
X3.75Y-3.55
X3.9Y-2.15
X3.9Y-2.25
X3.9Y-2.35
X3.9Y-2.45
X3.9Y-2.55
X3.9Y-2.65
X3.9Y-2.75
X3.9Y-2.85
X3.9Y-3.15
X3.9Y-3.55
X4.05Y-3.15
X4.05Y-3.55
X4.2Y-2.15
X4.2Y-2.25
X4.2Y-2.35
X4.2Y-2.45
X4.2Y-2.55
X4.2Y-2.65
X4.2Y-2.75
X4.2Y-2.85
X4.35Y-2.35
X4.35Y-2.75
X4.45Y-2.9
X4.45Y-3.0969
X4.6Y-2.2071
X4.6Y-2.4
X4.75Y-2.7
X4.75Y-3.0
X4.85Y-2.2
X4.85Y-2.5
X4.85Y-2.7
X4.85Y-3.0
X4.95Y-2.2
X4.95Y-2.5
X4.95Y-2.7
X4.95Y-3.0
X5.05Y-2.2
X5.05Y-2.5
X5.05Y-2.7
X5.05Y-3.0
X5.15Y-2.2
X5.15Y-2.5
X5.15Y-2.7
X5.15Y-3.0
X5.25Y-2.2
X5.25Y-2.5
X5.25Y-2.7
X5.25Y-3.0
X5.35Y-2.2
X5.35Y-2.5
X5.35Y-2.7
X5.35Y-3.0
X5.45Y-2.2
X5.45Y-2.5
X5.45Y-2.7
X5.45Y-3.0
X5.65Y-3.05
X5.65Y-3.45
X5.7Y-2.15
X5.7Y-2.55
T3
X4.3Y-3.65
X4.3Y-3.8469
X4.4969Y-3.65
X4.4969Y-3.8469
T4
X3.85Y-3.0
X4.25Y-3.0
T5
X4.8Y-3.35
X4.8Y-3.75
X5.3Y-3.35
X5.3Y-3.75
T6
X3.15Y-3.8
X3.35Y-3.8
X3.55Y-3.8
X3.8Y-3.8
X4.0Y-3.8
X5.65Y-3.65
X5.65Y-3.85
T0
M30
