%TF.GenerationSoftware,KiCad,Pcbnew,5.1.12-84ad8e8a86~92~ubuntu20.04.1*%
%TF.CreationDate,2022-03-12T13:00:31+01:00*%
%TF.ProjectId,DTMF 1,44544d46-2031-42e6-9b69-6361645f7063,rev?*%
%TF.SameCoordinates,Original*%
%TF.FileFunction,Copper,L1,Top*%
%TF.FilePolarity,Positive*%
%FSLAX46Y46*%
G04 Gerber Fmt 4.6, Leading zero omitted, Abs format (unit mm)*
G04 Created by KiCad (PCBNEW 5.1.12-84ad8e8a86~92~ubuntu20.04.1) date 2022-03-12 13:00:31*
%MOMM*%
%LPD*%
G01*
G04 APERTURE LIST*
%TA.AperFunction,ComponentPad*%
%ADD10O,1.600000X1.600000*%
%TD*%
%TA.AperFunction,ComponentPad*%
%ADD11R,1.600000X1.600000*%
%TD*%
%TA.AperFunction,ComponentPad*%
%ADD12O,1.200000X1.200000*%
%TD*%
%TA.AperFunction,ComponentPad*%
%ADD13O,1.600000X1.200000*%
%TD*%
%TA.AperFunction,ComponentPad*%
%ADD14C,1.500000*%
%TD*%
%TA.AperFunction,ComponentPad*%
%ADD15R,3.000000X3.000000*%
%TD*%
%TA.AperFunction,ComponentPad*%
%ADD16C,3.000000*%
%TD*%
%TA.AperFunction,ComponentPad*%
%ADD17C,1.600000*%
%TD*%
%TA.AperFunction,ComponentPad*%
%ADD18O,1.200000X1.600000*%
%TD*%
%TA.AperFunction,ComponentPad*%
%ADD19O,2.200000X2.200000*%
%TD*%
%TA.AperFunction,ComponentPad*%
%ADD20R,2.200000X2.200000*%
%TD*%
%TA.AperFunction,ComponentPad*%
%ADD21R,2.000000X2.000000*%
%TD*%
%TA.AperFunction,ComponentPad*%
%ADD22O,2.000000X2.000000*%
%TD*%
%TA.AperFunction,Conductor*%
%ADD23C,0.500000*%
%TD*%
G04 APERTURE END LIST*
D10*
%TO.P,U1,14*%
%TO.N,+VDC*%
X93980000Y-74930000D03*
%TO.P,U1,7*%
%TO.N,GND*%
X78740000Y-67310000D03*
%TO.P,U1,13*%
%TO.N,Net-(C3-Pad1)*%
X91440000Y-74930000D03*
%TO.P,U1,6*%
%TO.N,Net-(U1-Pad6)*%
X81280000Y-67310000D03*
%TO.P,U1,12*%
%TO.N,Net-(U1-Pad12)*%
X88900000Y-74930000D03*
%TO.P,U1,5*%
%TO.N,GND*%
X83820000Y-67310000D03*
%TO.P,U1,11*%
%TO.N,Net-(C2-Pad1)*%
X86360000Y-74930000D03*
%TO.P,U1,4*%
%TO.N,Net-(U1-Pad4)*%
X86360000Y-67310000D03*
%TO.P,U1,10*%
%TO.N,Net-(U1-Pad10)*%
X83820000Y-74930000D03*
%TO.P,U1,3*%
%TO.N,GND*%
X88900000Y-67310000D03*
%TO.P,U1,9*%
X81280000Y-74930000D03*
%TO.P,U1,2*%
%TO.N,Net-(U1-Pad2)*%
X91440000Y-67310000D03*
%TO.P,U1,8*%
%TO.N,Net-(U1-Pad8)*%
X78740000Y-74930000D03*
D11*
%TO.P,U1,1*%
%TO.N,Net-(C1-Pad2)*%
X93980000Y-67310000D03*
%TD*%
D12*
%TO.P,Q1,3*%
%TO.N,Net-(Q1-Pad3)*%
X143510000Y-69850000D03*
%TO.P,Q1,2*%
%TO.N,Net-(Q1-Pad2)*%
X144780000Y-68580000D03*
D13*
%TO.P,Q1,1*%
%TO.N,Net-(Q1-Pad1)*%
X146050000Y-69850000D03*
%TD*%
D10*
%TO.P,U2,16*%
%TO.N,+VDC*%
X106680000Y-54610000D03*
%TO.P,U2,8*%
%TO.N,GND*%
X99060000Y-72390000D03*
%TO.P,U2,15*%
X106680000Y-57150000D03*
%TO.P,U2,7*%
%TO.N,Net-(U2-Pad5)*%
X99060000Y-69850000D03*
%TO.P,U2,14*%
%TO.N,Net-(C6-Pad1)*%
X106680000Y-59690000D03*
%TO.P,U2,6*%
%TO.N,Net-(U2-Pad6)*%
X99060000Y-67310000D03*
%TO.P,U2,13*%
%TO.N,Net-(U1-Pad2)*%
X106680000Y-62230000D03*
%TO.P,U2,5*%
%TO.N,Net-(U2-Pad5)*%
X99060000Y-64770000D03*
%TO.P,U2,12*%
%TO.N,Net-(U2-Pad10)*%
X106680000Y-64770000D03*
%TO.P,U2,4*%
%TO.N,Net-(U1-Pad10)*%
X99060000Y-62230000D03*
%TO.P,U2,11*%
X106680000Y-67310000D03*
%TO.P,U2,3*%
%TO.N,Net-(U1-Pad2)*%
X99060000Y-59690000D03*
%TO.P,U2,10*%
%TO.N,Net-(U2-Pad10)*%
X106680000Y-69850000D03*
%TO.P,U2,2*%
%TO.N,Net-(C7-Pad2)*%
X99060000Y-57150000D03*
%TO.P,U2,9*%
%TO.N,Net-(U2-Pad9)*%
X106680000Y-72390000D03*
D11*
%TO.P,U2,1*%
%TO.N,GND*%
X99060000Y-54610000D03*
%TD*%
D14*
%TO.P,Y1,2*%
%TO.N,Net-(U4-Pad7)*%
X116840000Y-56060000D03*
%TO.P,Y1,1*%
%TO.N,Net-(U4-Pad6)*%
X116840000Y-60960000D03*
%TD*%
D10*
%TO.P,U4,14*%
%TO.N,Net-(R8-Pad2)*%
X138430000Y-63500000D03*
%TO.P,U4,7*%
%TO.N,Net-(U4-Pad7)*%
X123190000Y-55880000D03*
%TO.P,U4,13*%
%TO.N,Net-(U4-Pad13)*%
X135890000Y-63500000D03*
%TO.P,U4,6*%
%TO.N,Net-(U4-Pad6)*%
X125730000Y-55880000D03*
%TO.P,U4,12*%
%TO.N,Net-(U3-Pad2)*%
X133350000Y-63500000D03*
%TO.P,U4,5*%
%TO.N,GND*%
X128270000Y-55880000D03*
%TO.P,U4,11*%
%TO.N,Net-(U3-Pad14)*%
X130810000Y-63500000D03*
%TO.P,U4,4*%
%TO.N,Net-(U4-Pad4)*%
X130810000Y-55880000D03*
%TO.P,U4,10*%
%TO.N,Net-(U3-Pad11)*%
X128270000Y-63500000D03*
%TO.P,U4,3*%
%TO.N,Net-(U4-Pad3)*%
X133350000Y-55880000D03*
%TO.P,U4,9*%
%TO.N,Net-(U3-Pad6)*%
X125730000Y-63500000D03*
%TO.P,U4,2*%
%TO.N,Net-(U2-Pad10)*%
X135890000Y-55880000D03*
%TO.P,U4,8*%
%TO.N,Net-(U4-Pad8)*%
X123190000Y-63500000D03*
D11*
%TO.P,U4,1*%
%TO.N,+VDC*%
X138430000Y-55880000D03*
%TD*%
D10*
%TO.P,U3,16*%
%TO.N,+VDC*%
X120650000Y-68580000D03*
%TO.P,U3,8*%
%TO.N,GND*%
X138430000Y-76200000D03*
%TO.P,U3,15*%
%TO.N,Net-(U1-Pad12)*%
X123190000Y-68580000D03*
%TO.P,U3,7*%
%TO.N,Net-(U3-Pad7)*%
X135890000Y-76200000D03*
%TO.P,U3,14*%
%TO.N,Net-(U3-Pad14)*%
X125730000Y-68580000D03*
%TO.P,U3,6*%
%TO.N,Net-(U3-Pad6)*%
X133350000Y-76200000D03*
%TO.P,U3,13*%
%TO.N,Net-(U3-Pad13)*%
X128270000Y-68580000D03*
%TO.P,U3,5*%
%TO.N,GND*%
X130810000Y-76200000D03*
%TO.P,U3,12*%
%TO.N,Net-(U3-Pad12)*%
X130810000Y-68580000D03*
%TO.P,U3,4*%
%TO.N,Net-(U3-Pad4)*%
X128270000Y-76200000D03*
%TO.P,U3,11*%
%TO.N,Net-(U3-Pad11)*%
X133350000Y-68580000D03*
%TO.P,U3,3*%
%TO.N,Net-(U3-Pad3)*%
X125730000Y-76200000D03*
%TO.P,U3,10*%
%TO.N,+VDC*%
X135890000Y-68580000D03*
%TO.P,U3,2*%
%TO.N,Net-(U3-Pad2)*%
X123190000Y-76200000D03*
%TO.P,U3,9*%
%TO.N,Net-(U2-Pad6)*%
X138430000Y-68580000D03*
D11*
%TO.P,U3,1*%
%TO.N,GND*%
X120650000Y-76200000D03*
%TD*%
D15*
%TO.P,T1,1*%
%TO.N,Net-(Q1-Pad3)*%
X121920000Y-85090000D03*
D16*
%TO.P,T1,3*%
%TO.N,+VDC*%
X121920000Y-95250000D03*
%TO.P,T1,6*%
%TO.N,Net-(J3-Pad1)*%
X134620000Y-85090000D03*
%TO.P,T1,4*%
%TO.N,Net-(J3-Pad2)*%
X134620000Y-95250000D03*
%TD*%
D10*
%TO.P,R10,2*%
%TO.N,Net-(D2-Pad1)*%
X102870000Y-80010000D03*
D17*
%TO.P,R10,1*%
%TO.N,Net-(D1-Pad1)*%
X102870000Y-90170000D03*
%TD*%
D10*
%TO.P,R9,2*%
%TO.N,GND*%
X143510000Y-77470000D03*
D17*
%TO.P,R9,1*%
%TO.N,Net-(Q1-Pad1)*%
X143510000Y-87630000D03*
%TD*%
D10*
%TO.P,R8,2*%
%TO.N,Net-(R8-Pad2)*%
X144780000Y-54610000D03*
D17*
%TO.P,R8,1*%
%TO.N,Net-(Q1-Pad2)*%
X144780000Y-64770000D03*
%TD*%
D10*
%TO.P,R7,2*%
%TO.N,Net-(C7-Pad2)*%
X93980000Y-53340000D03*
D17*
%TO.P,R7,1*%
%TO.N,+VDC*%
X93980000Y-63500000D03*
%TD*%
D10*
%TO.P,R6,2*%
%TO.N,Net-(C6-Pad1)*%
X110490000Y-69850000D03*
D17*
%TO.P,R6,1*%
%TO.N,+VDC*%
X110490000Y-59690000D03*
%TD*%
D10*
%TO.P,R5,2*%
%TO.N,Net-(J1-Pad1)*%
X99060000Y-90170000D03*
D17*
%TO.P,R5,1*%
%TO.N,Net-(C3-Pad1)*%
X99060000Y-80010000D03*
%TD*%
D10*
%TO.P,R4,2*%
%TO.N,Net-(J1-Pad1)*%
X95250000Y-90170000D03*
D17*
%TO.P,R4,1*%
%TO.N,+VDC*%
X95250000Y-80010000D03*
%TD*%
D10*
%TO.P,R3,2*%
%TO.N,Net-(J1-Pad2)*%
X87630000Y-90170000D03*
D17*
%TO.P,R3,1*%
%TO.N,Net-(C2-Pad1)*%
X87630000Y-80010000D03*
%TD*%
D10*
%TO.P,R2,2*%
%TO.N,Net-(J1-Pad2)*%
X91440000Y-90170000D03*
D17*
%TO.P,R2,1*%
%TO.N,+VDC*%
X91440000Y-80010000D03*
%TD*%
D10*
%TO.P,R1,2*%
%TO.N,GND*%
X78740000Y-63500000D03*
D17*
%TO.P,R1,1*%
%TO.N,Net-(C1-Pad2)*%
X88900000Y-63500000D03*
%TD*%
D12*
%TO.P,Q2,3*%
%TO.N,Net-(D1-Pad1)*%
X111760000Y-86360000D03*
%TO.P,Q2,2*%
%TO.N,Net-(D2-Pad1)*%
X110490000Y-85090000D03*
D18*
%TO.P,Q2,1*%
%TO.N,+VDC*%
X111760000Y-83820000D03*
%TD*%
D16*
%TO.P,J3,2*%
%TO.N,Net-(J3-Pad2)*%
X143510000Y-97790000D03*
D15*
%TO.P,J3,1*%
%TO.N,Net-(J3-Pad1)*%
X143510000Y-92710000D03*
%TD*%
D16*
%TO.P,J2,2*%
%TO.N,Net-(D1-Pad4)*%
X96520000Y-96520000D03*
D15*
%TO.P,J2,1*%
%TO.N,Net-(D1-Pad2)*%
X101600000Y-96520000D03*
%TD*%
%TO.P,J1,1*%
%TO.N,Net-(J1-Pad1)*%
X90170000Y-96520000D03*
D16*
%TO.P,J1,2*%
%TO.N,Net-(J1-Pad2)*%
X85090000Y-96520000D03*
%TO.P,J1,3*%
%TO.N,GND*%
X80010000Y-96520000D03*
%TD*%
D19*
%TO.P,D2,2*%
%TO.N,GND*%
X107950000Y-76200000D03*
D20*
%TO.P,D2,1*%
%TO.N,Net-(D2-Pad1)*%
X97790000Y-76200000D03*
%TD*%
D21*
%TO.P,D1,1*%
%TO.N,Net-(D1-Pad1)*%
X109220000Y-92710000D03*
D22*
%TO.P,D1,3*%
%TO.N,GND*%
X114220000Y-97710000D03*
%TO.P,D1,2*%
%TO.N,Net-(D1-Pad2)*%
X109220000Y-97710000D03*
%TO.P,D1,4*%
%TO.N,Net-(D1-Pad4)*%
X114220000Y-92710000D03*
%TD*%
D17*
%TO.P,C7,2*%
%TO.N,Net-(C7-Pad2)*%
X87630000Y-54690000D03*
%TO.P,C7,1*%
%TO.N,GND*%
X87630000Y-59690000D03*
%TD*%
%TO.P,C6,2*%
%TO.N,GND*%
X113030000Y-78660000D03*
%TO.P,C6,1*%
%TO.N,Net-(C6-Pad1)*%
X113030000Y-73660000D03*
%TD*%
%TO.P,C3,2*%
%TO.N,GND*%
X78820000Y-82550000D03*
%TO.P,C3,1*%
%TO.N,Net-(C3-Pad1)*%
X83820000Y-82550000D03*
%TD*%
%TO.P,C2,2*%
%TO.N,GND*%
X78820000Y-88900000D03*
%TO.P,C2,1*%
%TO.N,Net-(C2-Pad1)*%
X83820000Y-88900000D03*
%TD*%
%TO.P,C1,2*%
%TO.N,Net-(C1-Pad2)*%
X80010000Y-59610000D03*
%TO.P,C1,1*%
%TO.N,+VDC*%
X80010000Y-54610000D03*
%TD*%
D23*
%TO.N,Net-(C1-Pad2)*%
X93980000Y-66040000D02*
X93980000Y-67310000D01*
X93980000Y-66040000D02*
X91440000Y-63500000D01*
X91440000Y-63500000D02*
X88900000Y-63500000D01*
X83820000Y-63420000D02*
X83820000Y-63500000D01*
X80010000Y-59610000D02*
X83820000Y-63420000D01*
X88900000Y-63500000D02*
X83820000Y-63500000D01*
%TO.N,+VDC*%
X121920000Y-95250000D02*
X121920000Y-91440000D01*
X121920000Y-91440000D02*
X118110000Y-87630000D01*
X118110000Y-68580000D02*
X120650000Y-68580000D01*
X135890000Y-68580000D02*
X135890000Y-69850000D01*
X135890000Y-69850000D02*
X134620000Y-71120000D01*
X134620000Y-71120000D02*
X121920000Y-71120000D01*
X121920000Y-71120000D02*
X120650000Y-69850000D01*
X120650000Y-69850000D02*
X120650000Y-68580000D01*
X93980000Y-64135000D02*
X93980000Y-63500000D01*
X80010000Y-56515000D02*
X80010000Y-54610000D01*
X91122500Y-57467500D02*
X80962500Y-57467500D01*
X80962500Y-57467500D02*
X80010000Y-56515000D01*
X93980000Y-60325000D02*
X91122500Y-57467500D01*
X93980000Y-63500000D02*
X93980000Y-60325000D01*
X118110000Y-83820000D02*
X118110000Y-68580000D01*
X118110000Y-87630000D02*
X118110000Y-83820000D01*
X93980000Y-77470000D02*
X93980000Y-74930000D01*
X111760000Y-83820000D02*
X118110000Y-83820000D01*
X80010000Y-54610000D02*
X80010000Y-53340000D01*
X80010000Y-53340000D02*
X82550000Y-50800000D01*
X106680000Y-52070000D02*
X105410000Y-50800000D01*
X82550000Y-50800000D02*
X105410000Y-50800000D01*
X106680000Y-52070000D02*
X106680000Y-54610000D01*
X110490000Y-55880000D02*
X110490000Y-59690000D01*
X110490000Y-59690000D02*
X111760000Y-60960000D01*
X111760000Y-60960000D02*
X111760000Y-66040000D01*
X111760000Y-66040000D02*
X114300000Y-68580000D01*
X114300000Y-68580000D02*
X118110000Y-68580000D01*
X110490000Y-55880000D02*
X110490000Y-54610000D01*
X106680000Y-54610000D02*
X110490000Y-54610000D01*
X93980000Y-77470000D02*
X93980000Y-80010000D01*
X93980000Y-80010000D02*
X95250000Y-80010000D01*
X91440000Y-80010000D02*
X93980000Y-80010000D01*
X111760000Y-53340000D02*
X110490000Y-54610000D01*
X137160000Y-53340000D02*
X111760000Y-53340000D01*
X138430000Y-54610000D02*
X137160000Y-53340000D01*
X138430000Y-55880000D02*
X138430000Y-54610000D01*
%TO.N,GND*%
X78820000Y-91360000D02*
X80010000Y-92550000D01*
X80010000Y-92550000D02*
X80010000Y-96520000D01*
X78820000Y-88900000D02*
X78820000Y-91360000D01*
X78820000Y-82550000D02*
X78820000Y-88900000D01*
X78820000Y-82550000D02*
X78820000Y-78820000D01*
X81280000Y-76360000D02*
X81280000Y-74930000D01*
X78820000Y-78820000D02*
X81280000Y-76360000D01*
X78740000Y-68580000D02*
X78740000Y-67310000D01*
X80010000Y-69850000D02*
X78740000Y-68580000D01*
X78740000Y-67310000D02*
X78740000Y-63500000D01*
X81280000Y-74930000D02*
X81280000Y-72390000D01*
X88900000Y-67310000D02*
X88900000Y-72390000D01*
X88900000Y-72390000D02*
X81280000Y-72390000D01*
X99060000Y-72390000D02*
X88900000Y-72390000D01*
X83820000Y-67310000D02*
X83820000Y-72390000D01*
X80010000Y-69850000D02*
X81280000Y-71120000D01*
X81280000Y-72390000D02*
X81280000Y-71120000D01*
X99060000Y-54610000D02*
X101600000Y-54610000D01*
X101600000Y-54610000D02*
X104140000Y-57150000D01*
X104140000Y-57150000D02*
X106680000Y-57150000D01*
X113030000Y-78660000D02*
X111840000Y-78660000D01*
X111840000Y-78660000D02*
X109380000Y-76200000D01*
X109380000Y-76200000D02*
X107950000Y-76200000D01*
X99060000Y-72390000D02*
X101600000Y-72390000D01*
X101600000Y-72390000D02*
X105410000Y-76200000D01*
X105410000Y-76200000D02*
X107950000Y-76200000D01*
%TO.N,Net-(C2-Pad1)*%
X81280000Y-86360000D02*
X83820000Y-88900000D01*
X86360000Y-74930000D02*
X86360000Y-76200000D01*
X86360000Y-76200000D02*
X81280000Y-81280000D01*
X81280000Y-81280000D02*
X81280000Y-86360000D01*
X87630000Y-80010000D02*
X87630000Y-85090000D01*
X87630000Y-85090000D02*
X83820000Y-88900000D01*
%TO.N,Net-(C3-Pad1)*%
X91440000Y-76200000D02*
X90805000Y-76835000D01*
X91440000Y-74930000D02*
X91440000Y-76200000D01*
X99060000Y-80010000D02*
X99060000Y-81280000D01*
X99060000Y-81280000D02*
X97790000Y-82550000D01*
X97790000Y-82550000D02*
X90805000Y-82550000D01*
X90805000Y-82550000D02*
X89535000Y-81280000D01*
X90805000Y-76835000D02*
X90170000Y-77470000D01*
X90170000Y-77470000D02*
X87630000Y-77470000D01*
X89535000Y-78105000D02*
X90170000Y-77470000D01*
X89535000Y-81280000D02*
X89535000Y-78105000D01*
X87630000Y-77470000D02*
X83820000Y-81280000D01*
X83820000Y-81280000D02*
X83820000Y-82550000D01*
X89535000Y-78105000D02*
X88900000Y-77470000D01*
%TO.N,Net-(C6-Pad1)*%
X110490000Y-67310000D02*
X110490000Y-69850000D01*
X109220000Y-66040000D02*
X110490000Y-67310000D01*
X109220000Y-60960000D02*
X109220000Y-66040000D01*
X107950000Y-59690000D02*
X109220000Y-60960000D01*
X106680000Y-59690000D02*
X107950000Y-59690000D01*
X110490000Y-69850000D02*
X110490000Y-71120000D01*
X110490000Y-71120000D02*
X113030000Y-73660000D01*
%TO.N,Net-(C7-Pad2)*%
X87630000Y-54690000D02*
X88900000Y-53420000D01*
X93900000Y-53420000D02*
X93980000Y-53340000D01*
X88900000Y-53420000D02*
X93900000Y-53420000D01*
X99060000Y-57150000D02*
X95250000Y-57150000D01*
X95250000Y-57150000D02*
X93980000Y-55880000D01*
X93980000Y-55880000D02*
X93980000Y-53340000D01*
%TO.N,Net-(D1-Pad1)*%
X109220000Y-92710000D02*
X109220000Y-90170000D01*
X109220000Y-90170000D02*
X110490000Y-88900000D01*
X111760000Y-86360000D02*
X111760000Y-87630000D01*
X111760000Y-87630000D02*
X110490000Y-88900000D01*
X109220000Y-90170000D02*
X102870000Y-90170000D01*
%TO.N,Net-(D1-Pad2)*%
X101760000Y-96520000D02*
X101600000Y-96520000D01*
X101600000Y-96520000D02*
X102870000Y-97790000D01*
X102950000Y-97710000D02*
X109220000Y-97710000D01*
X102870000Y-97790000D02*
X102950000Y-97710000D01*
%TO.N,Net-(D1-Pad4)*%
X106680000Y-95250000D02*
X111680000Y-95250000D01*
X111680000Y-95250000D02*
X114220000Y-92710000D01*
X96520000Y-96520000D02*
X100330000Y-92710000D01*
X100330000Y-92710000D02*
X104140000Y-92710000D01*
X104140000Y-92710000D02*
X106680000Y-95250000D01*
%TO.N,Net-(D2-Pad1)*%
X99060000Y-76200000D02*
X97790000Y-76200000D01*
X102870000Y-83820000D02*
X102870000Y-80010000D01*
X104140000Y-85090000D02*
X102870000Y-83820000D01*
X110490000Y-85090000D02*
X104140000Y-85090000D01*
X102870000Y-80010000D02*
X102870000Y-77470000D01*
X102870000Y-77470000D02*
X101600000Y-76200000D01*
X101600000Y-76200000D02*
X97790000Y-76200000D01*
%TO.N,Net-(J1-Pad2)*%
X91440000Y-90170000D02*
X87630000Y-90170000D01*
X85090000Y-96520000D02*
X85090000Y-92710000D01*
X85090000Y-92710000D02*
X87630000Y-90170000D01*
%TO.N,Net-(J1-Pad1)*%
X90170000Y-96520000D02*
X90170000Y-93980000D01*
X90170000Y-93980000D02*
X91440000Y-92710000D01*
X95250000Y-90170000D02*
X92710000Y-92710000D01*
X92710000Y-92710000D02*
X91440000Y-92710000D01*
X95250000Y-90170000D02*
X99060000Y-90170000D01*
%TO.N,Net-(J3-Pad2)*%
X134620000Y-95250000D02*
X134620000Y-96520000D01*
X135890000Y-97790000D02*
X143510000Y-97790000D01*
X134620000Y-96520000D02*
X135890000Y-97790000D01*
%TO.N,Net-(J3-Pad1)*%
X134620000Y-85090000D02*
X134620000Y-88900000D01*
X134620000Y-88900000D02*
X138430000Y-92710000D01*
X138430000Y-92710000D02*
X143510000Y-92710000D01*
%TO.N,Net-(Q1-Pad3)*%
X121920000Y-85090000D02*
X121920000Y-83820000D01*
X121920000Y-83820000D02*
X124460000Y-81280000D01*
X124460000Y-81280000D02*
X138430000Y-81280000D01*
X138430000Y-81280000D02*
X140970000Y-78740000D01*
X140970000Y-78740000D02*
X140970000Y-76200000D01*
X140970000Y-76200000D02*
X143510000Y-73660000D01*
X143510000Y-73660000D02*
X143510000Y-69850000D01*
%TO.N,Net-(Q1-Pad2)*%
X144780000Y-68580000D02*
X144780000Y-64770000D01*
%TO.N,Net-(Q1-Pad1)*%
X143510000Y-87630000D02*
X143510000Y-85090000D01*
X143510000Y-85090000D02*
X146050000Y-82550000D01*
X146050000Y-82550000D02*
X146050000Y-69850000D01*
%TO.N,Net-(R8-Pad2)*%
X138430000Y-63500000D02*
X139700000Y-63500000D01*
X139700000Y-63500000D02*
X144780000Y-58420000D01*
X144780000Y-58420000D02*
X144780000Y-54610000D01*
%TO.N,Net-(U1-Pad10)*%
X100330000Y-62230000D02*
X99060000Y-62230000D01*
X105410000Y-67310000D02*
X100330000Y-62230000D01*
X106680000Y-67310000D02*
X105410000Y-67310000D01*
%TO.N,Net-(U1-Pad2)*%
X99060000Y-59690000D02*
X101600000Y-59690000D01*
X101600000Y-59690000D02*
X104140000Y-62230000D01*
X104140000Y-62230000D02*
X106680000Y-62230000D01*
%TO.N,Net-(U2-Pad5)*%
X99060000Y-69850000D02*
X99140000Y-69930000D01*
X99060000Y-69850000D02*
X97790000Y-69850000D01*
X97790000Y-69850000D02*
X96520000Y-68580000D01*
X96520000Y-66040000D02*
X97790000Y-64770000D01*
X97790000Y-64770000D02*
X99060000Y-64770000D01*
X96520000Y-68580000D02*
X96520000Y-66040000D01*
%TO.N,Net-(U3-Pad11)*%
X132080000Y-66040000D02*
X133350000Y-67310000D01*
X133350000Y-67310000D02*
X133350000Y-68580000D01*
X132080000Y-66040000D02*
X129540000Y-66040000D01*
X129540000Y-66040000D02*
X128270000Y-64770000D01*
X128270000Y-64770000D02*
X128270000Y-63500000D01*
%TO.N,Net-(U3-Pad2)*%
X140970000Y-67310000D02*
X139700000Y-66040000D01*
X140970000Y-67310000D02*
X140970000Y-72390000D01*
X140970000Y-72390000D02*
X139700000Y-73660000D01*
X139700000Y-73660000D02*
X124460000Y-73660000D01*
X124460000Y-73660000D02*
X123190000Y-74930000D01*
X123190000Y-74930000D02*
X123190000Y-76200000D01*
X139700000Y-66040000D02*
X134620000Y-66040000D01*
X134620000Y-66040000D02*
X133350000Y-64770000D01*
X133350000Y-64770000D02*
X133350000Y-63500000D01*
%TO.N,Net-(U4-Pad7)*%
X123010000Y-56060000D02*
X123190000Y-55880000D01*
X116840000Y-56060000D02*
X123010000Y-56060000D01*
%TO.N,Net-(U4-Pad6)*%
X116840000Y-60960000D02*
X118110000Y-59690000D01*
X118110000Y-59690000D02*
X123190000Y-59690000D01*
X125730000Y-55880000D02*
X125730000Y-57150000D01*
X125730000Y-57150000D02*
X123190000Y-59690000D01*
%TD*%
M02*
